<svg width="1600" height="1100" viewBox="0 0 1600 1100" fill="none" xmlns="http://www.w3.org/2000/svg">
  <defs>
    <linearGradient id="bg" x1="120" y1="84" x2="1470" y2="1020" gradientUnits="userSpaceOnUse">
      <stop stop-color="#050505"/>
      <stop offset="0.45" stop-color="#101010"/>
      <stop offset="1" stop-color="#020202"/>
    </linearGradient>
    <radialGradient id="light" cx="0" cy="0" r="1" gradientUnits="userSpaceOnUse" gradientTransform="translate(1115 226) rotate(90) scale(420 420)">
      <stop stop-color="#FFFFFF" stop-opacity="0.22"/>
      <stop offset="1" stop-color="#FFFFFF" stop-opacity="0"/>
    </radialGradient>
    <linearGradient id="floor" x1="442" y1="544" x2="1318" y2="1032" gradientUnits="userSpaceOnUse">
      <stop stop-color="#161616"/>
      <stop offset="1" stop-color="#0A0A0A"/>
    </linearGradient>
    <filter id="blur" x="886" y="36" width="548" height="548" filterUnits="userSpaceOnUse">
      <feGaussianBlur stdDeviation="48"/>
    </filter>
  </defs>
  <rect width="1600" height="1100" fill="url(#bg)"/>
  <rect width="1600" height="1100" fill="url(#light)"/>
  <rect x="0" y="0" width="720" height="1100" fill="#000000" fill-opacity="0.62"/>
  <g filter="url(#blur)">
    <circle cx="1160" cy="310" r="160" fill="#FFFFFF" fill-opacity="0.34"/>
  </g>
  <path d="M612 690L1438 538L1598 1038H410L612 690Z" fill="url(#floor)" stroke="#3A3A3A" stroke-width="2"/>
  <path d="M786 644L1360 550L1482 934H650L786 644Z" stroke="#CCCCCC" stroke-width="2"/>
  <path d="M896 628L1244 574L1316 814H820L896 628Z" stroke="#444444" stroke-width="2"/>
  <path d="M1018 610L1152 588L1188 712H980L1018 610Z" stroke="#444444" stroke-width="2"/>
  <path d="M1072 602L1232 110" stroke="#444444" stroke-width="4" stroke-dasharray="12 12"/>
  <path d="M1102 630C1118 554 1148 492 1192 444C1238 394 1292 370 1354 372" stroke="#CCCCCC" stroke-width="2" stroke-dasharray="10 12"/>
  <circle cx="1348" cy="372" r="18" fill="#FFFFFF"/>
  <path d="M1012 882C1032 726 1050 620 1066 564C1080 518 1102 472 1132 426C1166 374 1208 336 1258 312L1288 300L1324 390L1298 402C1268 416 1242 442 1220 480C1202 512 1190 542 1184 570L1156 710L1238 1038H1122L1066 764L1040 840L1056 1038H948L1012 882Z" fill="#F0F0F0"/>
  <path d="M1212 320L1396 506" stroke="#FFFFFF" stroke-width="26" stroke-linecap="round"/>
  <path d="M1368 482L1440 548" stroke="#888888" stroke-width="18" stroke-linecap="round"/>
  <path d="M952 200H1186" stroke="#444444" stroke-width="2"/>
  <path d="M932 252H1272" stroke="#444444" stroke-width="2"/>
  <rect x="88" y="72" width="1424" height="956" rx="40" stroke="#2E2E2E" stroke-width="2"/>
</svg>
