<svg width="1400" height="1000" viewBox="0 0 1400 1000" fill="none" xmlns="http://www.w3.org/2000/svg">
  <defs>
    <linearGradient id="stockBg" x1="96" y1="82" x2="1258" y2="916" gradientUnits="userSpaceOnUse">
      <stop stop-color="#070707"/>
      <stop offset="1" stop-color="#121212"/>
    </linearGradient>
    <linearGradient id="window" x1="986" y1="96" x2="986" y2="346" gradientUnits="userSpaceOnUse">
      <stop stop-color="#FFFFFF" stop-opacity="0.32"/>
      <stop offset="1" stop-color="#FFFFFF" stop-opacity="0.02"/>
    </linearGradient>
  </defs>
  <rect width="1400" height="1000" fill="url(#stockBg)"/>
  <rect x="846" y="102" width="284" height="220" rx="12" fill="url(#window)"/>
  <rect x="1148" y="102" width="152" height="220" rx="12" fill="url(#window)"/>
  <path d="M184 762H1218" stroke="#CCCCCC" stroke-width="4"/>
  <path d="M184 762V928H1218V762" stroke="#444444" stroke-width="2"/>
  <path d="M436 762V928" stroke="#444444" stroke-width="2"/>
  <path d="M962 762V928" stroke="#444444" stroke-width="2"/>
  <path d="M700 762V928" stroke="#FFFFFF" stroke-width="4"/>
  <path d="M184 842H1218" stroke="#444444" stroke-width="2"/>
  <path d="M184 682H1218" stroke="#444444" stroke-width="2" stroke-dasharray="14 14"/>
  <path d="M102 330H1298" stroke="#2E2E2E" stroke-width="2"/>
  <path d="M184 558C350 510 522.667 486 702 486C866.667 486 1038.67 510 1218 558" stroke="#1B1B1B" stroke-width="80" stroke-linecap="round"/>
  <path d="M220 550C376.667 506 538.667 484 706 484C860.667 484 1024.67 506 1198 550" stroke="#FFFFFF" stroke-opacity="0.08" stroke-width="2"/>
  <rect x="84" y="84" width="1232" height="832" rx="40" stroke="#2E2E2E" stroke-width="2"/>
</svg>
