<svg width="1000" height="1400" viewBox="0 0 1000 1400" fill="none" xmlns="http://www.w3.org/2000/svg">
  <defs>
    <linearGradient id="serveBg" x1="120" y1="96" x2="806" y2="1296" gradientUnits="userSpaceOnUse">
      <stop stop-color="#090909"/>
      <stop offset="1" stop-color="#141414"/>
    </linearGradient>
    <radialGradient id="serveLight" cx="0" cy="0" r="1" gradientUnits="userSpaceOnUse" gradientTransform="translate(618 220) rotate(90) scale(280 280)">
      <stop stop-color="#FFFFFF" stop-opacity="0.26"/>
      <stop offset="1" stop-color="#FFFFFF" stop-opacity="0"/>
    </radialGradient>
  </defs>
  <rect width="1000" height="1400" fill="url(#serveBg)"/>
  <rect width="1000" height="1400" fill="url(#serveLight)"/>
  <circle cx="704" cy="198" r="20" fill="#FFFFFF"/>
  <path d="M698 230L804 98" stroke="#FFFFFF" stroke-width="24" stroke-linecap="round"/>
  <path d="M800 84L890 150" stroke="#888888" stroke-width="16" stroke-linecap="round"/>
  <path d="M448 274C448 334.751 398.751 384 338 384C277.249 384 228 334.751 228 274C228 213.249 277.249 164 338 164C398.751 164 448 213.249 448 274Z" fill="#D8D8D8"/>
  <path d="M206 1216C234 1022.67 278.667 862 340 734C402.667 604.667 482 494 578 402L618 364L722 474L678 510C618 560 568 626 528 708L478 808L548 1216H422L384 914L332 1014L322 1216H206Z" fill="#F6F6F6"/>
  <path d="M534 414L704 720" stroke="#FFFFFF" stroke-width="34" stroke-linecap="round"/>
  <path d="M666 742L754 1190" stroke="#CCCCCC" stroke-width="20" stroke-linecap="round"/>
  <path d="M340 744L188 1176" stroke="#444444" stroke-width="18" stroke-linecap="round"/>
  <path d="M118 1120H828" stroke="#444444" stroke-width="2"/>
  <path d="M118 1054H856" stroke="#444444" stroke-width="2"/>
  <rect x="82" y="88" width="836" height="1224" rx="40" stroke="#2E2E2E" stroke-width="2"/>
</svg>
