<svg width="1100" height="1100" viewBox="0 0 1100 1100" fill="none" xmlns="http://www.w3.org/2000/svg">
  <defs>
    <linearGradient id="detailBg" x1="94" y1="84" x2="1000" y2="1030" gradientUnits="userSpaceOnUse">
      <stop stop-color="#090909"/>
      <stop offset="1" stop-color="#141414"/>
    </linearGradient>
    <radialGradient id="detailGlow" cx="0" cy="0" r="1" gradientUnits="userSpaceOnUse" gradientTransform="translate(682 280) rotate(90) scale(220 220)">
      <stop stop-color="#FFFFFF" stop-opacity="0.2"/>
      <stop offset="1" stop-color="#FFFFFF" stop-opacity="0"/>
    </radialGradient>
  </defs>
  <rect width="1100" height="1100" fill="url(#detailBg)"/>
  <rect width="1100" height="1100" fill="url(#detailGlow)"/>
  <circle cx="714" cy="282" r="140" stroke="#CCCCCC" stroke-width="12"/>
  <circle cx="714" cy="282" r="104" stroke="#444444" stroke-width="2"/>
  <path d="M574 282H854" stroke="#444444" stroke-width="2"/>
  <path d="M714 142V422" stroke="#444444" stroke-width="2"/>
  <path d="M612 180L816 384" stroke="#444444" stroke-width="2"/>
  <path d="M612 384L816 180" stroke="#444444" stroke-width="2"/>
  <path d="M120 858C220 744 312 670 396 636C482.667 602 564.667 598.667 642 626L744 664L690 810L626 784C584.667 768.667 542.667 770.667 500 790C460 809.333 425.333 838.667 396 878L316 990L120 858Z" fill="#F0F0F0"/>
  <path d="M246 792L420 930" stroke="#888888" stroke-width="18" stroke-linecap="round"/>
  <path d="M176 860L344 996" stroke="#FFFFFF" stroke-width="24" stroke-linecap="round"/>
  <path d="M122 864C308 778 484 732 650 726C780 722 892.667 746 988 798" stroke="#444444" stroke-width="2" stroke-dasharray="12 12"/>
  <rect x="84" y="84" width="932" height="932" rx="38" stroke="#2E2E2E" stroke-width="2"/>
</svg>
